<?xml version="1.0" encoding="utf-8"?>
<!-- Generator: Adobe Illustrator 19.1.0, SVG Export Plug-In . SVG Version: 6.00 Build 0)  -->
<svg version="1.1" id="Layer_1" xmlns="http://www.w3.org/2000/svg" xmlns:xlink="http://www.w3.org/1999/xlink" x="0px" y="0px"
	 viewBox="0 0 643.9 47.7" style="enable-background:new 0 0 643.9 47.7;" xml:space="preserve">
<style type="text/css">
	.st0{fill:#FFFFFF;}
	.st1{fill:#3DD6F3;}
</style>
<g>
	<path class="st0" d="M1.7,0h37.8c1.5,0,2.2,1.8,1.2,2.9l-5.6,5.6C34.7,8.8,34.3,9,33.9,9l-23.2,0C9.7,8.9,9,9.7,9,10.6l0,23.2
		c0,0.4-0.2,0.9-0.5,1.2l-5.6,5.6c-1.1,1.1-2.9,0.3-2.9-1.2L0,1.7C0,0.8,0.7,0,1.7,0z"/>
	<path class="st0" d="M44.7,47.7H6.9c-1.5,0-2.2-1.8-1.2-2.9l5.6-5.6c0.3-0.3,0.7-0.5,1.2-0.5l23.2,0c0.9,0,1.7-0.8,1.7-1.7l0-23.2
		c0-0.4,0.2-0.9,0.5-1.2l5.6-5.6c1.1-1.1,2.9-0.3,2.9,1.2l0,37.8C46.4,46.9,45.6,47.7,44.7,47.7z"/>
</g>
<g>
	<path class="st0" d="M95.8,12c-2-0.7-4.7-1.3-7.7-1.3c-7.3,0-10,2.8-10,10.4c0,8.1,2.7,10.8,10.1,10.8c2.9,0,5.5-0.6,7.6-1.5
		l0.8,5.1c-2.5,1.1-6,2-9.2,2c-10.9,0-16.1-5.6-16.1-16.4c0-10.2,5.1-16.1,16.6-16.1c3,0,6.5,0.7,8.6,1.5L95.8,12z"/>
	<path class="st0" d="M134.5,31.2l-0.2,5.7h-22.7V5.6h6.5v25.6H134.5z"/>
	<path class="st0" d="M173.4,31.4l-0.1,5.5h-24.4V5.6h23.6l0.1,5.6h-17.3v7.1H170v4.9h-14.6v8.1H173.4z"/>
	<path class="st0" d="M218.4,5.6l-13.1,31.3h-7.1L185.2,5.6h7.2l8.4,22.2l1.1,3.2h0.1l1.1-3.2l8.5-22.2H218.4z"/>
	<path class="st0" d="M256.8,31.4l-0.1,5.5h-24.4V5.6h23.6l0.1,5.6h-17.3v7.1h14.6v4.9h-14.6v8.1H256.8z"/>
	<path class="st0" d="M291.1,23.8l9.1,13.1h-7.7l-7.1-11.9h-6.7v11.9h-6.5V5.6h13.3c8.2,0,12.3,3.3,12.3,9.6
		C297.7,19.7,295.4,22.9,291.1,23.8z M285.3,10.9h-6.7v9.5h6.5c4.1,0,5.9-1.3,5.9-4.9C291,12.2,289.4,10.9,285.3,10.9z"/>
</g>
<g>
	<path class="st1" d="M334.5,17.5v4.3h7.1l0,1.9h-7V30h-2.2V15.4h10.6l0.1,2H334.5z"/>
	<path class="st1" d="M352.3,15.4h2.3V30h-2.3V15.4z"/>
	<path class="st1" d="M376.6,30l-8.3-10l-1-1.2l0,0l0,1.6V30h-2V15.4h2l7.9,9.7l1,1.2l0,0l0-1.5v-9.4h2V30H376.6z"/>
	<path class="st1" d="M400.4,29.3c-1.3,0.6-3.1,0.9-5,0.9c-5.4,0-7.7-2.5-7.7-7.5c0-5.1,2.4-7.6,7.8-7.6c1.6,0,3.3,0.3,4.6,0.8
		l-0.2,2c-1.2-0.5-2.7-0.8-4.2-0.8c-3.9,0-5.5,1.4-5.5,5.6c0,4,1.5,5.5,5.3,5.5c1.2,0,2.2-0.2,3.1-0.5v-5.4h2V29.3z"/>
	<path class="st1" d="M421.2,28l0,2h-11V15.4h10.6l0,2h-8.4v4.1h7.2v1.7h-7.2V28H421.2z"/>
	<path class="st1" d="M438.5,23.6l4.5,6.4h-2.7l-3.8-5.9h-3.7V30h-2.2V15.4h6c3.6,0,5.3,1.5,5.3,4.2
		C441.8,21.8,440.6,23.3,438.5,23.6z M436.4,17.3h-3.7v5.1h3.6c2.2,0,3.1-0.8,3.1-2.6C439.5,18,438.6,17.3,436.4,17.3z"/>
	<path class="st1" d="M457.4,24.7h-3.6V30h-2.2V15.4h5.8c4.1,0,5.8,1.6,5.8,4.7C463.2,23,461.5,24.7,457.4,24.7z M457.4,17.3h-3.6
		V23h3.6c2.3,0,3.5-0.7,3.5-2.8C460.9,18.1,459.8,17.3,457.4,17.3z"/>
	<path class="st1" d="M480.4,23.6l4.5,6.4h-2.7l-3.8-5.9h-3.7V30h-2.2V15.4h6c3.6,0,5.3,1.5,5.3,4.2
		C483.7,21.8,482.6,23.3,480.4,23.6z M478.4,17.3h-3.7v5.1h3.6c2.2,0,3.1-0.8,3.1-2.6C481.4,18,480.5,17.3,478.4,17.3z"/>
	<path class="st1" d="M493.8,15.4h2.3V30h-2.3V15.4z"/>
	<path class="st1" d="M518.2,30l-8.3-10l-1-1.2l0,0l0,1.6V30h-2V15.4h2l7.9,9.7l1,1.2l0,0l0-1.5v-9.4h2V30H518.2z"/>
	<path class="st1" d="M535.7,17.5V30h-2.3V17.5h-5.1l0.1-2h12.4l0,2H535.7z"/>
	<path class="st1" d="M572.6,27.9l-0.1,2h-10.3V15.4h2.2v12.5H572.6z"/>
	<path class="st1" d="M587.4,30.2c-5.1,0-7.1-2.5-7.1-7.5c0-5,2-7.5,7.1-7.5c5.2,0,7.1,2.5,7.1,7.5
		C594.5,27.8,592.6,30.2,587.4,30.2z M587.4,17.2c-3.4,0-4.8,1.4-4.8,5.5c0,4.1,1.3,5.5,4.8,5.5c3.4,0,4.8-1.4,4.8-5.5
		C592.2,18.6,590.9,17.2,587.4,17.2z"/>
	<path class="st1" d="M614.5,17.8c-0.9-0.4-2.3-0.7-3.7-0.7c-3.7,0-5.2,1.5-5.2,5.4c0,4.2,1.5,5.7,5.3,5.7c1.4,0,2.6-0.3,3.7-0.8
		l0.3,1.8c-1.1,0.5-2.7,1-4.3,1c-5,0-7.4-2.6-7.4-7.6c0-4.8,2.3-7.4,7.5-7.4c1.5,0,3.1,0.3,4,0.7L614.5,17.8z"/>
	<path class="st1" d="M634.5,30l-5.5-6.6h-2.7V30h-2.2V15.4h2.2v6.1h2.7l5.2-6.1h2.7l-6,6.9l6.4,7.7H634.5z"/>
</g>
</svg>
