<?xml version="1.0" encoding="UTF-8"?>
<svg width="375px" height="667px" viewBox="0 0 375 667" version="1.1" xmlns="http://www.w3.org/2000/svg" xmlns:xlink="http://www.w3.org/1999/xlink">
    <!-- Generator: Sketch 41.2 (35397) - http://www.bohemiancoding.com/sketch -->
    <title>Main Control Panel Page Unlocked</title>
    <desc>Created with Sketch.</desc>
    <defs>
        <linearGradient x1="50%" y1="0%" x2="50%" y2="100%" id="linearGradient-1">
            <stop stop-color="#3F97E0" offset="0%"></stop>
            <stop stop-color="#32F6F6" offset="100%"></stop>
        </linearGradient>
    </defs>
    <g id="Clever-App-Pages" stroke="none" stroke-width="1" fill="none" fill-rule="evenodd">
        <g id="Main-Control-Panel-Page-Unlocked">
            <rect id="Rectangle" fill="#212121" x="0" y="0" width="375" height="455"></rect>
            <g id="Bluetooth" transform="translate(299.000000, 5.000000)" fill="#FFFFFF">
                <path d="M3.5,14 L8,9.75 L4.8,7 L8,4.25 L3.5,0 L3.5,5.57142857 L0.8,3.25 L0,4 L3.25833333,6.875 L0,9.75 L0.8,10.5 L3.5,8.17857143 L3.5,14 Z M4.5,2.5 L6.36666667,4.25 L4.5,5.75 L4.5,2.5 Z M4.5,8 L6.36666667,9.75 L4.5,11.5 L4.5,8 Z"></path>
            </g>
            <g id="Header" transform="translate(19.043103, 35.736989)" fill="#FFFFFF">
                <text id="Control-Panel" font-family="OpenSans-Light, Open Sans" font-size="19.9799995" font-weight="300">
                    <tspan x="107.338068" y="21">Control Panel</tspan>
                </text>
                <path d="M4.11637572,13.142581 L17.4568966,13.142581 L17.4568966,14.8612967 L4.11572917,14.8612967 L9.38793103,19.4299175 L8.0049569,20.6453692 L1.33012023,14.8612967 L1.07456897,14.8612967 L1.07456897,14.639849 L0.638793103,14.2622279 L0.935280357,14.0016547 L0.639439655,13.7416498 L1.07456897,13.364589 L1.07456897,13.142581 L1.33076678,13.142581 L8.00560345,7.35850856 L9.38857759,8.57396023 L4.11637572,13.142581 Z" id="back"></path>
            </g>
            <g id="Header" transform="translate(64.000000, 243.000000)"></g>
            <g id="Status-Bar/White/100%" fill="#FFFFFF">
                <g id="Pin-Right" transform="translate(309.000000, 3.000000)">
                    <path d="M37.4937128,2.5 C36.668758,2.5 36,3.16802155 36,4.00530324 L36,10.4946968 C36,11.3260528 36.6733803,12 37.4937128,12 L57.0062872,12 C57.831242,12 58.5,11.3319784 58.5,10.4946968 L58.5,4.00530324 C58.5,3.17394722 57.8266197,2.5 57.0062872,2.5 L37.4937128,2.5 Z M59,5.5 L59,9 L59.75,9 C60.1642136,9 60.5,8.66440529 60.5,8.25774002 L60.5,6.24225998 C60.5,5.83232111 60.1671014,5.5 59.75,5.5 L59,5.5 Z M37.5081524,3 C36.9513652,3 36.5,3.45699692 36.5,4.00844055 L36.5,10.4915594 C36.5,11.0485058 36.9490581,11.5 37.5081524,11.5 L56.9918476,11.5 C57.5486348,11.5 58,11.0430031 58,10.4915594 L58,4.00844055 C58,3.45149422 57.5509419,3 56.9918476,3 L37.5081524,3 Z M37.5067444,3.5 C37.2268772,3.5 37,3.71637201 37,3.99209595 L37,10.5079041 C37,10.7796811 37.2302246,11 37.5067444,11 L56.9932556,11 C57.2731228,11 57.5,10.783628 57.5,10.5079041 L57.5,3.99209595 C57.5,3.72031886 57.2697754,3.5 56.9932556,3.5 L37.5067444,3.5 Z" id="Battery"></path>
                    <text id="100%" font-family=".AppleSystemUIFont" font-size="12" font-weight="normal">
                        <tspan x="2.85351562" y="12.5">100%</tspan>
                    </text>
                </g>
                <text id="9:41-AM" font-family=".AppleSystemUIFont" font-size="12" font-weight="normal">
                    <tspan x="164.255859" y="15.5">9:41 AM</tspan>
                </text>
                <g id="Pin-Left" transform="translate(6.000000, 3.000000)">
                    <path d="M90.1444208,9.43850432 C89.626374,8.84544555 88.8523616,8.46891192 87.987563,8.46891192 C87.1390073,8.46891192 86.3778594,8.83143413 85.8601652,9.40531769 L88.0225391,11.5 L90.1444208,9.43850432 Z M92.3234964,7.32144245 C91.2447794,6.19174563 89.7014387,5.48445596 87.987563,5.48445596 C86.2882723,5.48445596 84.7566264,6.17975893 83.6792698,7.29269359 L84.7692987,8.34859996 C85.567205,7.5053708 86.713648,6.97668394 87.987563,6.97668394 C89.2768836,6.97668394 90.4356305,7.51823504 91.2346215,8.37932931 L92.3234964,7.32144245 L92.3234964,7.32144245 Z M94.5,5.20687933 C92.8629578,3.53943672 90.5505699,2.5 87.987563,2.5 C85.4375103,2.5 83.1355496,3.52895605 81.5,5.18164431 L82.5895579,6.23709441 C83.9460798,4.85431655 85.8628921,3.99222798 87.987563,3.99222798 C90.1260026,3.99222798 92.0538809,4.86552609 93.4118698,6.26404272 L94.5,5.20687933 Z" id="Wi-Fi"></path>
                    <text id="Carrier" font-family=".SFNSText, .SF NS Text" font-size="12" font-weight="normal">
                        <tspan x="38" y="12.5">Clever</tspan>
                    </text>
                    <path d="M3.25,10 C4.76878306,10 6,8.76878306 6,7.25 C6,5.73121694 4.76878306,4.5 3.25,4.5 C1.73121694,4.5 0.5,5.73121694 0.5,7.25 C0.5,8.76878306 1.73121694,10 3.25,10 Z M10.25,10 C11.7687831,10 13,8.76878306 13,7.25 C13,5.73121694 11.7687831,4.5 10.25,4.5 C8.73121694,4.5 7.5,5.73121694 7.5,7.25 C7.5,8.76878306 8.73121694,10 10.25,10 Z M17.25,10 C18.7687831,10 20,8.76878306 20,7.25 C20,5.73121694 18.7687831,4.5 17.25,4.5 C15.7312169,4.5 14.5,5.73121694 14.5,7.25 C14.5,8.76878306 15.7312169,10 17.25,10 Z M24.25,10 C25.7687831,10 27,8.76878306 27,7.25 C27,5.73121694 25.7687831,4.5 24.25,4.5 C22.7312169,4.5 21.5,5.73121694 21.5,7.25 C21.5,8.76878306 22.7312169,10 24.25,10 Z M31.25,10 C32.7687831,10 34,8.76878306 34,7.25 C34,5.73121694 32.7687831,4.5 31.25,4.5 C29.7312169,4.5 28.5,5.73121694 28.5,7.25 C28.5,8.76878306 29.7312169,10 31.25,10 Z" id="Mobile-Signal"></path>
                </g>
            </g>
            <g id="Bottom-Menu" transform="translate(0.000000, 418.000000)">
                <polygon id="BG" fill="#3D3D3D" points="0 0 0 252.331232 375 252.331232 375 0"></polygon>
                <g id="Users" transform="translate(37.000000, 73.000000)" font-size="14.0625" font-family="OpenSans, Open Sans" letter-spacing="1.171875" fill="#FFFFFF" font-weight="normal">
                    <text id="USERS">
                        <tspan x="0" y="15.7421875">USERS</tspan>
                    </text>
                </g>
                <g id="History" transform="translate(26.000000, 197.000000)" font-size="14.0625" font-family="OpenSans, Open Sans" letter-spacing="1.171875" fill="#FFFFFF" font-weight="normal">
                    <text id="HISTORY">
                        <tspan x="0" y="15">HISTORY</tspan>
                    </text>
                </g>
                <g id="Share" transform="translate(162.000000, 164.000000)" fill="#FFFFFF">
                    <path d="M33.3257813,13.7666016 C31.6207031,10.0693359 28.1408203,5.15742188 21.5607422,4.54511719 C20.7955078,4.46542969 20.1949219,3.8203125 20.1697266,3.02695313 C20.1691406,3.00878906 20.1691406,2.990625 20.1691406,2.97246094 C20.1691406,2.95429688 20.1691406,2.93671875 20.1697266,2.91855469 L20.1697266,0.710742188 L20.1691406,0.710742188 C20.1691406,0.322265625 19.8597656,0.00703125 19.4794922,0.00703125 C19.3130859,0.00703125 19.1607422,0.06796875 19.0417969,0.167578125 C19.0335938,0.175195313 19.0253906,0.181640625 19.0166016,0.190429688 L11.6923828,6.86308594 C11.6917969,6.86367188 11.690625,6.86367188 11.6894531,6.86601563 L11.5992188,6.94863281 C11.3068359,7.23632813 11.1251953,7.63945313 11.1251953,8.08535156 C11.1251953,8.47792969 11.2658203,8.83710938 11.4984375,9.1125 L11.7632813,9.36328125 L18.9931641,16.1917969 C19.0025391,16.2023438 19.0119141,16.2123047 19.0224609,16.2205078 C19.1443359,16.3306641 19.3042969,16.3974609 19.4800781,16.3974609 C19.8603516,16.3974609 20.1697266,16.0845703 20.1697266,15.6949219 L20.1703125,15.6949219 L20.1703125,12.9339844 C20.1697266,12.9146484 20.1697266,12.8976563 20.1697266,12.8794922 C20.1697266,12.8613281 20.1697266,12.84375 20.1703125,12.8255859 C20.1978516,11.9777344 20.8810547,11.2986328 21.7189453,11.2986328 L21.7189453,11.296875 C25.9458984,11.3835938 29.4005859,11.9314453 32.1644531,14.5060547 L32.165625,14.5060547 C32.2171875,14.5546875 32.26875,14.6027344 32.3191406,14.6519531 L32.3203125,14.6525391 C32.4304688,14.7287109 32.5628906,14.7726563 32.7058594,14.7726563 C33.0861328,14.7726563 33.3943359,14.4585938 33.3943359,14.0701172 C33.3943359,13.9617188 33.3697266,13.8585938 33.3257813,13.7666016 L33.3257813,13.7666016 Z" id="Shape"></path>
                    <text id="SHARE" font-family="OpenSans, Open Sans" font-size="14.0625" font-weight="normal" letter-spacing="1.171875">
                        <tspan x="0" y="48.984375">SHARE</tspan>
                    </text>
                </g>
                <g id="Help" transform="translate(294.000000, 160.000000)" fill="#FFFFFF">
                    <path d="M18.1634766,0.999414062 C24.6357422,0.999414062 29.8822266,6.24589844 29.8822266,12.7181641 C29.8822266,19.1904297 24.6351562,24.4369141 18.1634766,24.4369141 C11.6917969,24.4369141 6.44472656,19.1904297 6.44472656,12.7181641 C6.44472656,6.24589844 11.6917969,0.999414062 18.1634766,0.999414062 Z M18.1634766,2.37871094 C23.8746094,2.37871094 28.5035156,7.00820313 28.5035156,12.71875 C28.5035156,18.4292969 23.8740234,23.0582031 18.1634766,23.0582031 C12.4529297,23.0582031 7.82402344,18.4292969 7.82402344,12.71875 C7.82402344,7.00820313 12.4529297,2.37871094 18.1634766,2.37871094 Z M18.2847656,15.3355469 L18.2847656,14.9716797 C18.2847656,14.5351563 18.3697266,14.1882813 18.5396484,13.9292969 C18.7089844,13.6708984 19.0441406,13.3451172 19.5451172,12.9519531 C20.1316406,12.4943359 20.5453125,12.1228516 20.7849609,11.8375 C21.0246094,11.5521484 21.2039063,11.2521484 21.3222656,10.9369141 C21.440625,10.6216797 21.5003906,10.2625 21.5003906,9.85820313 C21.5003906,8.94824219 21.1910156,8.23457031 20.5716797,7.71777344 C19.9523438,7.20097656 19.1150391,6.94199219 18.0591797,6.94199219 C16.8099609,6.94199219 15.6386719,7.24667969 14.5453125,7.85488281 L15.2238281,9.27636719 C15.6386719,9.071875 16.0640625,8.89726563 16.5,8.75136719 C16.9359375,8.60605469 17.4099609,8.5328125 17.9214844,8.5328125 C18.4869141,8.5328125 18.9205078,8.65410156 19.2222656,8.89667969 C19.5240234,9.13867188 19.6746094,9.48613281 19.6746094,9.93847656 C19.6746094,10.3263672 19.5814453,10.6603516 19.3957031,10.9404297 C19.2099609,11.2205078 18.7962891,11.6136719 18.1558594,12.1199219 C17.6167969,12.5400391 17.2400391,12.9466797 17.0244141,13.3398438 C16.809375,13.7330078 16.7015625,14.2257813 16.7015625,14.8181641 L16.7015625,15.3355469 L18.2847656,15.3355469 L18.2847656,15.3355469 Z M16.6775391,18.8294922 C16.8826172,19.0474609 17.1755859,19.1570312 17.5582031,19.1570312 C17.9402344,19.1570312 18.2355469,19.0457031 18.4423828,18.821875 C18.6498047,18.5986328 18.7535156,18.2957031 18.7535156,17.9130859 C18.7535156,17.5251953 18.6509766,17.2251953 18.4464844,17.0119141 C18.2419922,16.7998047 17.9455078,16.6931641 17.5582031,16.6931641 C16.7660156,16.6931641 16.3705078,17.0998047 16.3705078,17.9130859 C16.3699219,18.30625 16.4730469,18.6115234 16.6775391,18.8294922 L16.6775391,18.8294922 Z" id="Shape"></path>
                    <text id="INFO" font-family="OpenSans, Open Sans" font-size="14.0625" font-weight="normal" letter-spacing="1.171875">
                        <tspan x="0" y="52.9140625">INFO</tspan>
                    </text>
                </g>
                <g id="Settings" transform="translate(277.000000, 40.000000)" fill="#FFFFFF">
                    <path d="M45.6691406,9.03574219 L45.6580078,9.03632812 C45.61875,8.64550781 45.3082031,8.33554687 44.9185547,8.296875 L44.7486328,8.296875 L44.4626953,8.296875 L44.4626953,8.29160156 C43.9746094,8.29160156 43.5509766,8.01035156 43.3482422,7.59960937 C43.2996094,7.49941406 43.2621094,7.39160156 43.2416016,7.27734375 C43.1496094,7.021875 43.0458984,6.77285156 42.9298828,6.53027344 C42.9298828,6.5296875 42.9298828,6.5296875 42.9292969,6.52851562 C42.8712891,6.44296875 42.8238281,6.34921875 42.7886719,6.24960937 L42.7886719,6.24785156 C42.7423828,6.11777344 42.7177734,5.97832031 42.7177734,5.83300781 C42.7177734,5.49023437 42.8560547,5.17851562 43.0822266,4.95410156 L43.0804687,4.95410156 L43.3335937,4.70097656 C43.3365234,4.69863281 43.3400391,4.69570312 43.3435547,4.6921875 C43.3458984,4.68867187 43.3494141,4.68574219 43.3517578,4.68222656 C43.6470703,4.37753906 43.6623047,3.9046875 43.3992187,3.58300781 L43.4039062,3.57949219 C43.2099609,3.346875 43.0066406,3.12421875 42.7933594,2.91152344 C42.5748047,2.69179687 42.3474609,2.484375 42.1095703,2.2875 L42.1072266,2.28984375 C41.8154297,2.05136719 41.3982422,2.04257812 41.0958984,2.26347656 L40.9136719,2.44570312 L40.7431641,2.61503906 L40.7355469,2.60742187 C40.3728516,2.97070312 39.8419922,3.06269531 39.3931641,2.88222656 C39.3322266,2.85820312 39.2730469,2.82890625 39.2167969,2.79433594 C38.9308594,2.65605469 38.6355469,2.53359375 38.3320312,2.42988281 C38.278125,2.41640625 38.2259766,2.39882812 38.1732422,2.37773437 C38.1732422,2.37773437 38.1726562,2.37773437 38.1714844,2.37597656 C38.0232422,2.31679687 37.8832031,2.22539062 37.7619141,2.1046875 C37.5591797,1.90136719 37.4414062,1.64589844 37.4080078,1.38164062 C37.3945312,1.27792969 37.3945312,1.17421875 37.4080078,1.07050781 L37.4080078,0.857226562 C37.4080078,0.449414062 37.1126953,0.11015625 36.7248047,0.041015625 C36.6767578,0.036328125 36.6287109,0.0328125 36.5794922,0.0287109375 L36.5789062,0.0287109375 C36.3046875,0.005859375 36.0292969,-0.005859375 35.7498047,-0.005859375 C35.4708984,-0.005859375 35.1949219,0.0064453125 34.9207031,0.0287109375 L34.9201172,0.0287109375 C34.8714844,0.0328125 34.8228516,0.036328125 34.7742187,0.041015625 C34.3863281,0.11015625 34.0921875,0.449414062 34.0921875,0.857226562 L34.0921875,1.22636719 C34.0921875,1.76132812 33.7564453,2.21601562 33.2835937,2.39179687 C33.2542969,2.40410156 33.2226562,2.4140625 33.1916016,2.42226562 C32.859375,2.53535156 32.5382812,2.66835937 32.2283203,2.821875 C32.2265625,2.82246094 32.2265625,2.82363281 32.2248047,2.82363281 C32.2001953,2.83710937 32.1761719,2.84882812 32.1498047,2.86054687 C31.9921875,2.93320312 31.8175781,2.97363281 31.6330078,2.97363281 C31.2896484,2.97363281 30.9785156,2.83359375 30.7541016,2.60917969 L30.7517578,2.6109375 L30.4892578,2.34960937 C30.2009766,2.06132812 29.7550781,2.02910156 29.4316406,2.25351562 C29.3947266,2.28398437 29.3578125,2.31445312 29.3220703,2.34433594 C29.3203125,2.34609375 29.3185547,2.34785156 29.3167969,2.34960937 C29.1052734,2.52832031 28.9019531,2.71582031 28.70625,2.9109375 C28.5105469,3.10546875 28.3236328,3.30878906 28.1455078,3.51972656 C28.1455078,3.51972656 28.1449219,3.51972656 28.1449219,3.52148437 C28.1126953,3.55839844 28.0810547,3.59648437 28.0505859,3.63398437 C27.825,3.95800781 27.8566406,4.40449219 28.1449219,4.69335937 L28.40625,4.9546875 C28.7824219,5.33144531 28.8667969,5.88984375 28.659375,6.34746094 C28.6458984,6.37617187 28.6324219,6.40488281 28.6166016,6.43183594 C28.4642578,6.74003906 28.3306641,7.06171875 28.2193359,7.39160156 C28.2087891,7.42675781 28.1970703,7.46074219 28.1835937,7.49414062 C28.1835937,7.49414062 28.1835937,7.49414062 28.1835937,7.49589844 C28.1226562,7.65292969 28.0294922,7.80117187 27.9017578,7.92773437 C27.6591797,8.17089844 27.3421875,8.2921875 27.0228516,8.2921875 L27.0228516,8.29570312 L26.6519531,8.29570312 C26.2435547,8.29570312 25.9048828,8.58984375 25.8351562,8.97773437 C25.8304687,9.02578125 25.8257812,9.075 25.8216797,9.12363281 L25.8216797,9.12363281 C25.8,9.39199219 25.7876953,9.68027344 25.7876953,9.95332031 L25.7876953,9.95332031 L25.7876953,9.96035156 L25.7876953,9.96679687 L25.7876953,9.96679687 C25.7876953,10.2416016 25.8,10.5134766 25.8216797,10.7818359 L25.8216797,10.7830078 C25.8257812,10.8310547 25.8304687,10.8796875 25.8351562,10.9283203 C25.9042969,11.3162109 26.2423828,11.6115234 26.6501953,11.6115234 L26.6519531,11.6115234 L27.0228516,11.6115234 C27.5525391,11.6115234 28.0037109,11.9431641 28.1830078,12.4095703 L28.1830078,12.4113281 C28.1947266,12.4423828 28.2058594,12.4734375 28.2134766,12.5050781 C28.2152344,12.5068359 28.2152344,12.5085937 28.2169922,12.5109375 C28.3283203,12.8414062 28.4619141,13.1636719 28.6148437,13.4742187 C28.6166016,13.4759766 28.6171875,13.4777344 28.6183594,13.4794922 C28.6318359,13.5029297 28.6435547,13.528125 28.6552734,13.5533203 C28.7279297,13.7109375 28.7677734,13.8873047 28.7677734,14.0712891 C28.7677734,14.4140625 28.6289062,14.7257812 28.4033203,14.9507812 L28.4050781,14.9525391 L28.1519531,15.2056641 C28.1484375,15.2080078 28.1449219,15.2115234 28.1414062,15.2150391 C28.1384766,15.2185547 28.1349609,15.2220703 28.1320312,15.225 C27.8560547,15.5103516 27.8244141,15.9451172 28.0394531,16.2638672 C28.0757812,16.3078125 28.1121094,16.3517578 28.1484375,16.3939453 C28.3253906,16.603125 28.5111328,16.8041016 28.7050781,16.9980469 L28.7050781,16.9980469 C28.8990234,17.1919922 29.1011719,17.3789062 29.3103516,17.5564453 C29.3525391,17.5921875 29.3947266,17.6273437 29.4369141,17.6625 C29.7246094,17.8564453 30.1066406,17.85 30.3884766,17.64375 L30.5707031,17.4615234 L30.7412109,17.2910156 L30.7488281,17.2980469 C31.1255859,16.921875 31.6857422,16.8375 32.1445312,17.0466797 C32.1679687,17.0566406 32.1919922,17.0683594 32.2136719,17.0806641 C32.2154297,17.0818359 32.2177734,17.0818359 32.2195312,17.0841797 C32.53125,17.2394531 32.8558594,17.3742187 33.1898437,17.4873047 C33.2185547,17.4960937 33.2472656,17.5060547 33.2753906,17.5160156 C33.4376953,17.5769531 33.5917969,17.6712891 33.7230469,17.803125 C33.9662109,18.0457031 34.0875,18.3626953 34.0875,18.6820312 L34.0910156,18.6820312 L34.0910156,19.0447266 C34.0910156,19.4730469 34.4162109,19.8269531 34.8345703,19.8691406 L34.8345703,19.8744141 C35.1357422,19.903125 35.4404297,19.9166016 35.7486328,19.9166016 C36.0574219,19.9166016 36.3609375,19.903125 36.6626953,19.8744141 L36.6621094,19.8691406 C37.0792969,19.8269531 37.4068359,19.4730469 37.4068359,19.0447266 L37.4068359,18.6755859 C37.4068359,18.1763672 37.6998047,17.7462891 38.1234375,17.5488281 C38.2095703,17.5083984 38.3003906,17.4779297 38.3947266,17.4580078 C38.6677734,17.3619141 38.9326172,17.2523437 39.1904297,17.1275391 C39.2648437,17.0789062 39.3457031,17.0378906 39.4300781,17.0074219 C39.5648437,16.9570312 39.7119141,16.9283203 39.8654297,16.9283203 C40.1806641,16.9283203 40.4689453,17.0466797 40.6892578,17.2423828 C40.7267578,17.2746094 40.7625,17.3097656 40.7964844,17.3484375 L41.0080078,17.5605469 L41.0085937,17.559375 C41.3003906,17.8511719 41.7574219,17.8798828 42.0814453,17.6449219 C42.0832031,17.6449219 42.0837891,17.6431641 42.084375,17.6414062 C42.1113281,17.6197266 42.1376953,17.5974609 42.1640625,17.5757812 C42.3814453,17.3917969 42.590625,17.1996094 42.7910156,16.9992187 C42.9919922,16.7982422 43.1841797,16.5890625 43.3675781,16.3716797 C43.3916016,16.3429687 43.4150391,16.3142578 43.4384766,16.2855469 C43.6664062,15.9738281 43.6458984,15.5384766 43.3816406,15.2460937 L43.3810547,15.2455078 L43.321875,15.1863281 L43.0910156,14.9542969 L43.0910156,14.9537109 C42.7201172,14.5828125 42.6322266,14.0361328 42.8279297,13.5826172 C42.8466797,13.5404297 42.8666016,13.4982422 42.8900391,13.4578125 C43.0365234,13.1595703 43.1660156,12.8490234 43.2744141,12.5302734 C43.2867187,12.4880859 43.2996094,12.4458984 43.3166016,12.4054687 C43.3763672,12.2501953 43.4701172,12.1054687 43.5949219,11.9794922 C43.8369141,11.7375 44.1550781,11.6162109 44.4738281,11.6162109 L44.4738281,11.6144531 L44.83125,11.6144531 L44.83125,11.6097656 C45.2736328,11.6097656 45.6369141,11.2611328 45.6585937,10.8240234 L45.6708984,10.8257812 C45.6955078,10.5392578 45.7078125,10.2492187 45.7078125,9.95742187 C45.7113281,9.64453125 45.6966797,9.33867187 45.6691406,9.03574219 L45.6691406,9.03574219 Z M40.8421875,9.95507812 L40.8421875,9.95507812 C40.8421875,10.5351562 40.7460937,11.0935547 40.5673828,11.6126953 C40.5,11.8107422 40.4203125,12.0035156 40.3294922,12.1898437 C40.0816406,12.6990234 39.7494141,13.1613281 39.3544922,13.5591797 C38.9583984,13.9564453 38.4978516,14.2886719 37.9892578,14.5388672 C37.8011719,14.6314453 37.6072266,14.7123047 37.4080078,14.7814453 C36.8882812,14.9619141 36.3304687,15.0597656 35.7498047,15.0615234 L35.7345703,15.0615234 C35.1597656,15.0615234 34.6083984,14.9671875 34.0921875,14.7919922 C33.8847656,14.7228516 33.6837891,14.6384766 33.4910156,14.5441406 C32.9841797,14.2962891 32.5259766,13.9675781 32.1310547,13.5738281 C31.7332031,13.1783203 31.4009766,12.7177734 31.1513672,12.2091797 C31.0570312,12.0169922 30.9732422,11.8183594 30.9035156,11.6126953 C30.7265625,11.0970703 30.6292969,10.5433594 30.6287109,9.96679687 C30.6304687,9.39199219 30.7265625,8.81308594 30.9035156,8.296875 C30.9738281,8.09179687 31.0570312,7.89316406 31.1513672,7.70039062 C31.4015625,7.19179687 31.7332031,6.73183594 32.1310547,6.33574219 C32.5289062,5.93964844 32.9912109,5.60800781 33.5003906,5.36015625 C33.6908203,5.26699219 33.8882812,5.18613281 34.0921875,5.11699219 C34.6083984,4.94179687 35.1597656,4.84746094 35.7345703,4.84746094 L35.7498047,4.84746094 C36.3298828,4.84921875 36.8882812,4.94765625 37.4080078,5.12753906 C37.6066406,5.19667969 37.8005859,5.27753906 37.9880859,5.37070312 C38.4972656,5.62148437 38.9578125,5.95429687 39.3533203,6.35039062 C39.7470703,6.74648437 40.0757812,7.20527344 40.3236328,7.71035156 C40.4167969,7.89902344 40.4976562,8.09472656 40.5667969,8.29628906 C40.7449219,8.81425781 40.8416016,9.3703125 40.8416016,9.94921875 L40.8416016,9.95507812 L40.8421875,9.95507812 Z" id="Shape"></path>
                    <text id="SETTINGS" font-family="OpenSans, Open Sans" font-size="14.0625" font-weight="normal" letter-spacing="1.171875">
                        <tspan x="0" y="48.984375">SETTINGS</tspan>
                    </text>
                </g>
                <g id="Messages---selected" transform="translate(125.000000, 0.000000)">
                    <polygon id="Selected" fill="url(#linearGradient-1)" points="0 0 124.804688 0 124.804688 124.804688 0 124.804688"></polygon>
                    <text id="LOCK" font-family="OpenSans, Open Sans" font-size="14.0625" font-weight="normal" letter-spacing="1.171875" fill="#FFFFFF">
                        <tspan x="42.265625" y="89.4140625">LOCK</tspan>
                    </text>
                </g>
                <path d="M125.390625,249.609375 L249.609375,249.609375 L249.609375,250.195312 L250.195312,250.195312 L250.195312,249.609375 L375,249.609375 L375,249.023438 L250.195312,249.023438 L250.195312,125.390625 L375,125.390625 L375,124.804688 L250.195312,124.804688 L250.195312,0 L249.609375,0 L249.609375,124.804688 L125.390625,124.804688 L125.390625,0 L124.804688,0 L124.804688,124.804688 L0,124.804688 L0,125.390625 L124.804688,125.390625 L124.804688,249.023438 L0,249.023438 L0,249.609375 L124.804688,249.609375 L124.804688,250.195312 L125.390625,250.195312 L125.390625,249.609375 Z M125.390625,249.023438 L249.609375,249.023438 L249.609375,125.390625 L125.390625,125.390625 L125.390625,249.023438 Z" id="Dividers" fill="#333333"></path>
            </g>
            <g id="Lock-Icon" transform="translate(178.000000, 455.000000)">
                <rect id="Rectangle-2" fill="#FFFFFF" x="0" y="8.31034483" width="16" height="17.6896552" rx="1"></rect>
                <path d="M2,9.31034483 L4,9.31034483 L4,6.33103448 C4,3.85448276 5.8,1.86206897 8,1.86206897 C10.2,1.86206897 12,3.85448276 12,6.33103448 L12,9.31034483 L14,9.31034483 L14,5.5862069 C14,2.49517241 11.32,0 8,0 C4.68,0 2,2.49517241 2,5.5862069 L2,9.31034483 Z" id="Shape" fill="#FFFFFF"></path>
                <g id="Sensor-Emblem" transform="translate(5.000000, 14.000000)" fill="#51DAF4">
                    <path d="M5.02517043,0 C5.21504442,0 5.31010867,0.223737921 5.17584791,0.354582437 L4.46229333,1.04998073 C4.42220599,1.08904805 4.36799264,1.11087614 4.31136132,1.11087614 L1.3578791,1.10913982 C1.24003506,1.10913982 1.14458902,1.20228127 1.14458902,1.31700276 L1.14675247,4.19583016 C1.14675247,4.25089647 1.12435446,4.3038544 1.08426713,4.34279769 L0.370076234,5.03894013 C0.235942735,5.16966062 0.00649045774,5.07726331 0.00623593497,4.89234466 L1.27113532e-07,0.20798697 C-0.000127134271,0.0931414515 0.0953189044,0 0.213162947,0 L5.02517043,0 Z" id="Fill-1"></path>
                    <path d="M5.7112552,5.9335097 L0.899247718,5.9335097 C0.709373732,5.9335097 0.614309477,5.70977178 0.748570238,5.57892727 L1.46212482,4.88352897 C1.50221216,4.84446165 1.55642551,4.82263356 1.61305683,4.82263356 L4.56653905,4.82436989 C4.68438309,4.82436989 4.77982913,4.73122844 4.77982913,4.61650694 L4.77766568,1.73767955 C4.77766568,1.68261323 4.80006369,1.62965531 4.84015102,1.59071201 L5.55434192,0.894569578 C5.68847542,0.763849086 5.91792769,0.856246398 5.91818222,1.04116505 L5.92441802,5.72552273 C5.92454528,5.84036825 5.82909925,5.9335097 5.7112552,5.9335097" id="Fill-3"></path>
                </g>
            </g>
            <g id="`Icons/clock" transform="translate(49.000000, 585.000000)" fill="#FFFFFF">
                <path d="M11.011,-0.013 C17.087,-0.013 22.012,4.913 22.012,10.989 C22.012,17.065 17.087,21.99 11.011,21.99 C4.938,21.99 0.013,17.065 0.013,10.989 C0.014,4.913 4.938,-0.013 11.011,-0.013 Z M17.601,10.984 C17.601,11.46 17.24,11.845 16.776,11.896 L10.552,11.896 C10.298,11.876 10.097,11.668 10.081,11.411 L10.081,11.398 L10.081,11.358 L10.081,6.619 L10.081,6.557 C10.099,6.057 10.506,5.659 11.011,5.659 C11.524,5.659 11.94,6.075 11.94,6.589 L11.94,7.111 L11.94,9.521 L11.94,9.525 C11.94,9.534 11.938,9.543 11.938,9.551 C11.938,9.56 11.94,9.569 11.94,9.576 L11.94,9.583 C11.953,9.835 12.15,10.032 12.398,10.057 L16.739,10.061 C17.22,10.093 17.601,10.493 17.601,10.984 Z M19.16,10.989 C19.16,6.489 15.512,2.842 11.012,2.842 C6.514,2.842 2.866,6.488 2.866,10.989 C2.866,15.49 6.514,19.138 11.012,19.138 C15.512,19.138 19.16,15.49 19.16,10.989 L19.16,10.989 Z" id="clock"></path>
            </g>
            <path d="M60.9424594,472.392679 C64.0101075,472.831947 66.2958061,474.728785 66.8772557,475.287854 C67.4587053,475.826955 67.8396551,479.8802 67.8396551,479.8802 L44.00022,479.8802 C44.00022,479.8802 43.9601201,476.585691 44.9626194,475.287854 C45.5440691,474.728785 48.3911673,472.831947 51.4788653,472.392679 C54.5465134,471.933444 53.704414,468.539101 53.8046639,468.599002 C53.9049138,468.638935 53.7846139,467.860233 53.7846139,467.860233 C53.7846139,467.860233 51.8798651,465.723794 51.9199651,463.787022 C51.9400151,461.85025 51.9199651,460.592346 51.9199651,460.592346 C51.9199651,460.592346 51.8598151,456 54.9876132,456 L56.9324619,456.858569 C59.7595102,456.858569 59.96001,460.592346 59.96001,460.592346 L59.96001,464.066556 C59.96001,464.066556 59.8397101,466.72213 58.0753112,467.700499 C58.0753112,467.700499 57.9349613,468.479201 58.0352112,468.439268 C58.1354612,468.379368 57.8547614,471.933444 60.9424594,472.392679 L60.9424594,472.392679 Z M70.1053037,479.960067 C70.1053037,479.960067 70.0050538,475.227953 69.8045539,475.008319 C69.624104,474.768719 69.604054,473.810316 67.4587053,472.492512 C67.6792552,471.833611 67.4787553,471.65391 67.5188553,471.673877 C67.5790053,471.71381 67.4988053,471.234609 67.4988053,471.234609 C67.4988053,471.234609 66.0151062,469.916805 66.0351562,468.738769 C66.0552062,467.560732 66.0351562,466.66223 66.0351562,466.66223 C66.0351562,466.66223 66.335906,463.986689 68.2607048,463.986689 L69.9449038,464.186356 C71.6892527,464.186356 71.8496526,466.66223 71.8496526,466.66223 L71.8496526,468.918469 C71.8496526,468.918469 71.3283529,470.535774 70.2456536,471.134775 C70.2456536,471.134775 70.1654537,471.613977 70.2256036,471.574043 C70.2857536,471.554077 70.2857536,473.710483 72.1704524,473.990017 C74.0551512,474.269551 74.5965009,475.427621 74.9574007,475.767055 C75.3183004,476.106489 76,480 76,480 L70.1053037,479.960067 L70.1053037,479.960067 Z" id="Shape" fill="#FFFFFF"></path>
            <g id="Big-Button" transform="translate(40.000000, 98.000000)">
                <path d="M297,148.5 C297,230.514075 230.514075,297 148.5,297 C66.485925,297 0,230.514075 0,148.5 C0,66.485925 66.485925,0 148.5,0 C230.514075,0 297,66.485925 297,148.5 Z" id="circle" fill="url(#linearGradient-1)"></path>
                <g id="Lock-Icon" transform="translate(99.000000, 46.200000)">
                    <rect id="Rectangle-2" fill="#FFFFFF" x="0" y="69.1293103" width="97.7625" height="107.83319" rx="3.3"></rect>
                    <path d="M12.2203125,70.3668103 L24.440625,70.3668103 L24.440625,38.592931 C24.440625,23.4962845 35.4389062,11.3508621 48.88125,11.3508621 C62.3235938,11.3508621 73.321875,23.4962845 73.321875,38.592931 L73.321875,56.7543103 L85.5421875,56.7543103 L85.5421875,34.0525862 C85.5421875,15.2101552 69.1669688,0 48.88125,0 C28.5955312,0 12.2203125,15.2101552 12.2203125,34.0525862 L12.2203125,70.3668103 Z" id="Shape" fill="#FFFFFF"></path>
                    <g id="Sensor-Emblem" transform="translate(30.550781, 103.812500)" fill="#51DAF4">
                        <path d="M30.7045765,0 C31.8647363,0 32.4455937,1.36386908 31.6252395,2.16147544 L27.2653095,6.40050754 C27.0203696,6.63865541 26.6891175,6.77171581 26.3430913,6.77171581 L8.29685349,6.76113146 C7.57680798,6.76113146 6.99361777,7.32890622 6.99361777,8.02822933 L7.00683675,25.5770813 C7.00683675,25.9127564 6.86998145,26.2355791 6.62504156,26.4729709 L2.26122362,30.7165392 C1.44164698,31.5133895 0.0396577109,30.9501509 0.0381025371,29.8229177 L7.76683544e-07,1.2678539 C-0.000776810263,0.567774765 0.5824134,0 1.30245891,0 L30.7045765,0 Z" id="Fill-1"></path>
                        <path d="M34.8966617,36.1696862 L5.49454406,36.1696862 C4.33438434,36.1696862 3.75352689,34.8058172 4.57388112,34.0082108 L8.93381113,29.7691787 C9.17875101,29.5310308 9.51000305,29.3979704 9.85602925,29.3979704 L27.9022671,29.4085548 C28.6223126,29.4085548 29.2055028,28.84078 29.2055028,28.1414569 L29.1922838,10.5926049 C29.1922838,10.2569298 29.3291391,9.93410715 29.574079,9.6967153 L33.937897,5.45314705 C34.7574736,4.65629672 36.1594629,5.21953533 36.1610181,6.34676859 L36.1991198,34.9018323 C36.1998974,35.6019115 35.6167072,36.1696862 34.8966617,36.1696862" id="Fill-3"></path>
                    </g>
                </g>
                <g id="Achievement-Icon"></g>
            </g>
            <g id="Charge" transform="translate(150.000000, 330.000000)" fill="#FFFFFF">
                <text id="98%" font-family="OpenSans, Open Sans" font-size="26.136" font-weight="normal" letter-spacing="0.538094097">
                    <tspan x="19.2794659" y="28">98%</tspan>
                </text>
                <path d="M12.3550693,19.0693469 L12.3550693,19.0663265 L12.2810693,18.9137959 L6.93988119,7.75867347 L6.91790099,7.71261224 C6.86221782,7.61595918 6.76110891,7.55102041 6.64534653,7.55102041 C6.47023762,7.55102041 6.32883168,7.69826531 6.32883168,7.8794898 L6.32883168,7.88930612 L6.33689109,7.95197959 L7.23661386,15.4939388 C7.23954455,15.5128163 7.2410099,15.532449 7.24320792,15.5528367 C7.24613861,15.584551 7.24760396,15.6162653 7.24760396,15.6502449 C7.24760396,16.1939184 6.82192079,16.634898 6.29659406,16.634898 L6.29659406,16.6401837 L1.54007921,16.6401837 L1.3129505,16.6401837 C0.578811881,16.6998367 -4.17443857e-14,17.3356327 -4.17443857e-14,18.1118776 C-4.17443857e-14,18.3414286 0.0505544554,18.5581429 0.141405941,18.751449 L5.51849505,29.9843469 L5.55219802,30.0568367 C5.55366337,30.0575918 5.55366337,30.0575918 5.55366337,30.0583469 C5.61081188,30.1451837 5.70825743,30.2025714 5.8159604,30.2025714 C5.99106931,30.2025714 6.13467327,30.0560816 6.13467327,29.874102 C6.13467327,29.8673061 6.13467327,29.859 6.13320792,29.8522041 L6.12807921,29.8076531 C6.12807921,29.8076531 6.12807921,29.8076531 6.12807921,29.806898 L5.2320198,22.3042041 C5.22176238,22.2528571 5.21516832,22.2 5.21370297,22.1463878 C5.21223762,22.1312857 5.21223762,22.1169388 5.21223762,22.1018367 C5.21223762,21.5574082 5.63792079,21.1164286 6.16324752,21.1164286 L6.16324752,21.1111429 L10.9263564,21.1111429 L11.1520198,21.1111429 C11.8861584,21.0522449 12.465703,20.4156939 12.465703,19.6386939 C12.4664356,19.4385918 12.427604,19.2452857 12.3550693,19.0693469 L12.3550693,19.0693469 Z" id="Flash-Icon"></path>
            </g>
        </g>
    </g>
</svg>